<mxfile host="app.diagrams.net" modified="2024-07-04T07:54:32.687Z" agent="Mozilla/5.0 (Windows NT 10.0; Win64; x64) AppleWebKit/537.36 (KHTML, like Gecko) Chrome/126.0.0.0 Safari/537.36 Edg/126.0.0.0" etag="-6IfbONiMUK8AGLG-5A0" version="24.6.4" type="github">
  <diagram name="第 1 页" id="S_cXRnAjtAU8uWQunCoB">
    <mxGraphModel dx="2800" dy="613" grid="1" gridSize="10" guides="1" tooltips="1" connect="1" arrows="1" fold="1" page="1" pageScale="1" pageWidth="827" pageHeight="1169" math="0" shadow="0">
      <root>
        <mxCell id="0" />
        <mxCell id="1" parent="0" />
        <mxCell id="YZil0p7yVioOztMhCc3v-10" value="" style="rounded=0;whiteSpace=wrap;html=1;" vertex="1" parent="1">
          <mxGeometry x="-1590" y="120" width="170" height="30" as="geometry" />
        </mxCell>
        <mxCell id="YZil0p7yVioOztMhCc3v-11" value="" style="rounded=0;whiteSpace=wrap;html=1;" vertex="1" parent="1">
          <mxGeometry x="-1420" y="120" width="160" height="30" as="geometry" />
        </mxCell>
        <mxCell id="YZil0p7yVioOztMhCc3v-12" value="src/main.c" style="text;html=1;align=center;verticalAlign=middle;resizable=0;points=[];autosize=1;strokeColor=none;fillColor=none;" vertex="1" parent="1">
          <mxGeometry x="-1515" y="90" width="80" height="30" as="geometry" />
        </mxCell>
        <mxCell id="YZil0p7yVioOztMhCc3v-13" value="Text" style="text;html=1;align=center;verticalAlign=middle;resizable=0;points=[];autosize=1;strokeColor=none;fillColor=none;fontColor=#666666;" vertex="1" parent="1">
          <mxGeometry x="-1500" y="150" width="50" height="30" as="geometry" />
        </mxCell>
      </root>
    </mxGraphModel>
  </diagram>
</mxfile>
